Source: Once Upon a Time in America 1984 720p BluRay DTS x264-CtrlHD

Subs: Arabic, Bulgarian, Chinese, Czech, Danish, Dutch, English, French, Greek, Hebrew, Italian, Romanian, Servian, Slovenian, Spanish, Turkish and Vietnamese.

Sample and Screens included.

General
Complete name                    : Once Upon a Time in America-720p MP4 AAC x264 BRRip 1984-CC.mp4
Format                           : MPEG-4
Format profile                   : Base Media
Codec ID                         : isom
File size                        : 3.69 GiB
Duration                         : 3h 49mn
Overall bit rate                 : 2 305 Kbps
Encoded date                     : UTC 2012-06-02 15:03:02

Video
ID                               : 1
Format                           : AVC
Format/Info                      : Advanced Video Codec
Format profile                   : High@L3.1
Format settings, CABAC           : Yes
Format settings, ReFrames        : 5 frames
Codec ID                         : avc1
Codec ID/Info                    : Advanced Video Coding
Duration                         : 3h 49mn
Bit rate mode                    : Variable
Bit rate                         : 1 922 Kbps
Maximum bit rate                 : 44.1 Mbps
Width                            : 1 280 pixels
Height                           : 720 pixels
Display aspect ratio             : 16:9
Frame rate mode                  : Variable
Frame rate                       : 23.976 fps
Minimum frame rate               : 19.048 fps
Maximum frame rate               : 24.390 fps
Resolution                       : 24 bits
Colorimetry                      : 4:2:0
Scan type                        : Progressive
Bits/(Pixel*Frame)               : 0.087
Stream size                      : 3.07 GiB (83%)
Writing library                  : x264 core 112

Audio
ID                               : 2
Format                           : AAC
Format/Info                      : Advanced Audio Codec
Format version                   : Version 4
Format profile                   : LC
Format settings, SBR             : No
Codec ID                         : 40
Duration                         : 3h 49mn
Bit rate mode                    : Variable
Bit rate                         : 384 Kbps
Maximum bit rate                 : 618 Kbps
Channel(s)                       : 6 channels
Channel positions                : Front: L C R, Rear: L R, LFE
Sampling rate                    : 48.0 KHz
Resolution                       : 16 bits
Stream size                      : 630 MiB (17%)
Language                         : English

Enjoy...

Requested by DreamExtractor.